# xmcd CD database file
#
# Track frame offsets:
#	150
#	23719
#	49276
#	57556
#	66013
#	89583
#
# Disc length: 1533 seconds
#
# Revision: 5
# Processed by: cddbd v1.5.1PL0 Copyright (c) Steve Scherf et al.
# Submitted via: CDex 1.60beta1
#
DISCID=5105fb06
DTITLE=Various Artist - 桜華 -おうか- オフィシャル通販限定 マキシシングル
DYEAR=2005
DGENRE=Game
TTITLE0=みとせのりこ - Celebrate (full ver.)
TTITLE1=中原涼 - 空を映した青い海 (full ver.)
TTITLE2=みとせのりこ - Celebrate (short ver.)
TTITLE3=中原涼 - 空を映した青い海 (short ver.)
TTITLE4=細井聡司 - Celebrate (off vocall ver.)
TTITLE5=細井聡司 - 空を映した青い海 (off vocall ver.)
EXTD=YEAR: 2005
EXTT0=
EXTT1=
EXTT2=
EXTT3=
EXTT4=
EXTT5=
PLAYORDER=
